{
    "asset" : {
        "generator" : "Khronos glTF Blender I/O v3.2.43",
        "version" : "2.0"
    },
    "scene" : 0,
    "scenes" : [
        {
            "name" : "Scene",
            "nodes" : [
                0,
                1,
                2,
                3,
                4,
                5
            ]
        }
    ],
    "nodes" : [
        {
            "mesh" : 0,
            "name" : "Sphere",
            "rotation" : [
                -1,
                0,
                0,
                4.371138828673793e-08
            ],
            "translation" : [
                0,
                4.3154802322387695,
                -0.5296204090118408
            ]
        },
        {
            "mesh" : 1,
            "name" : "Text",
            "rotation" : [
                0.7071068286895752,
                0,
                0,
                0.7071068286895752
            ],
            "translation" : [
                0.09947335720062256,
                2.479130744934082,
                0
            ]
        },
        {
            "mesh" : 2,
            "name" : "Text.001",
            "rotation" : [
                0.7071068286895752,
                0,
                0,
                0.7071068286895752
            ],
            "translation" : [
                -1.0675266981124878,
                2.479130744934082,
                0.18908365070819855
            ]
        },
        {
            "mesh" : 3,
            "name" : "Text.002",
            "rotation" : [
                0.7071068286895752,
                0,
                0,
                0.7071068286895752
            ],
            "translation" : [
                -0.4754710793495178,
                2.478001117706299,
                0.18908365070819855
            ]
        },
        {
            "mesh" : 4,
            "name" : "Text.003",
            "rotation" : [
                0.7071068286895752,
                0,
                0,
                0.7071068286895752
            ],
            "translation" : [
                0.09947335720062256,
                2.479130744934082,
                0
            ]
        },
        {
            "mesh" : 5,
            "name" : "Text.004",
            "rotation" : [
                0.7071068286895752,
                0,
                0,
                0.7071068286895752
            ],
            "translation" : [
                0.09947335720062256,
                2.479130744934082,
                0
            ]
        }
    ],
    "animations" : [
        {
            "channels" : [
                {
                    "sampler" : 0,
                    "target" : {
                        "node" : 0,
                        "path" : "rotation"
                    }
                }
            ],
            "name" : "SphereAction",
            "samplers" : [
                {
                    "input" : 24,
                    "interpolation" : "LINEAR",
                    "output" : 25
                }
            ]
        },
        {
            "channels" : [
                {
                    "sampler" : 0,
                    "target" : {
                        "node" : 1,
                        "path" : "translation"
                    }
                },
                {
                    "sampler" : 1,
                    "target" : {
                        "node" : 1,
                        "path" : "rotation"
                    }
                },
                {
                    "sampler" : 2,
                    "target" : {
                        "node" : 1,
                        "path" : "scale"
                    }
                }
            ],
            "name" : "Text",
            "samplers" : [
                {
                    "input" : 24,
                    "interpolation" : "LINEAR",
                    "output" : 26
                },
                {
                    "input" : 24,
                    "interpolation" : "LINEAR",
                    "output" : 27
                },
                {
                    "input" : 24,
                    "interpolation" : "LINEAR",
                    "output" : 28
                }
            ]
        },
        {
            "channels" : [
                {
                    "sampler" : 0,
                    "target" : {
                        "node" : 2,
                        "path" : "rotation"
                    }
                }
            ],
            "name" : "Text.001Action",
            "samplers" : [
                {
                    "input" : 29,
                    "interpolation" : "LINEAR",
                    "output" : 30
                }
            ]
        },
        {
            "channels" : [
                {
                    "sampler" : 0,
                    "target" : {
                        "node" : 3,
                        "path" : "rotation"
                    }
                }
            ],
            "name" : "Text.002Action",
            "samplers" : [
                {
                    "input" : 31,
                    "interpolation" : "LINEAR",
                    "output" : 32
                }
            ]
        },
        {
            "channels" : [
                {
                    "sampler" : 0,
                    "target" : {
                        "node" : 4,
                        "path" : "translation"
                    }
                },
                {
                    "sampler" : 1,
                    "target" : {
                        "node" : 4,
                        "path" : "rotation"
                    }
                },
                {
                    "sampler" : 2,
                    "target" : {
                        "node" : 4,
                        "path" : "scale"
                    }
                }
            ],
            "name" : "Text.003",
            "samplers" : [
                {
                    "input" : 24,
                    "interpolation" : "LINEAR",
                    "output" : 33
                },
                {
                    "input" : 24,
                    "interpolation" : "LINEAR",
                    "output" : 34
                },
                {
                    "input" : 24,
                    "interpolation" : "LINEAR",
                    "output" : 35
                }
            ]
        },
        {
            "channels" : [
                {
                    "sampler" : 0,
                    "target" : {
                        "node" : 5,
                        "path" : "translation"
                    }
                },
                {
                    "sampler" : 1,
                    "target" : {
                        "node" : 5,
                        "path" : "rotation"
                    }
                },
                {
                    "sampler" : 2,
                    "target" : {
                        "node" : 5,
                        "path" : "scale"
                    }
                }
            ],
            "name" : "Text.004",
            "samplers" : [
                {
                    "input" : 24,
                    "interpolation" : "LINEAR",
                    "output" : 36
                },
                {
                    "input" : 24,
                    "interpolation" : "LINEAR",
                    "output" : 37
                },
                {
                    "input" : 24,
                    "interpolation" : "LINEAR",
                    "output" : 38
                }
            ]
        }
    ],
    "materials" : [
        {
            "doubleSided" : true,
            "emissiveFactor" : [
                0.40000003576278687,
                0.40000003576278687,
                0.40000003576278687
            ],
            "name" : "Material.001",
            "pbrMetallicRoughness" : {
                "baseColorFactor" : [
                    0,
                    0,
                    0,
                    1
                ]
            }
        },
        {
            "alphaCutoff" : 0.5,
            "alphaMode" : "MASK",
            "doubleSided" : true,
            "name" : "Material.003",
            "pbrMetallicRoughness" : {
                "baseColorFactor" : [
                    0.800000011920929,
                    0.800000011920929,
                    0.800000011920929,
                    1
                ],
                "metallicFactor" : 0,
                "roughnessFactor" : 0.5
            }
        },
        {
            "doubleSided" : true,
            "emissiveFactor" : [
                1,
                0.040048204362392426,
                0.07849252969026566
            ],
            "name" : "Material.002",
            "pbrMetallicRoughness" : {
                "baseColorFactor" : [
                    0,
                    0,
                    0,
                    1
                ]
            }
        }
    ],
    "meshes" : [
        {
            "name" : "Sphere",
            "primitives" : [
                {
                    "attributes" : {
                        "POSITION" : 0,
                        "NORMAL" : 1,
                        "TEXCOORD_0" : 2
                    },
                    "indices" : 3,
                    "material" : 0
                }
            ]
        },
        {
            "name" : "Text",
            "primitives" : [
                {
                    "attributes" : {
                        "POSITION" : 4,
                        "NORMAL" : 5,
                        "TEXCOORD_0" : 6
                    },
                    "indices" : 7,
                    "material" : 1
                }
            ]
        },
        {
            "name" : "Text.001",
            "primitives" : [
                {
                    "attributes" : {
                        "POSITION" : 8,
                        "NORMAL" : 9,
                        "TEXCOORD_0" : 10
                    },
                    "indices" : 11,
                    "material" : 2
                }
            ]
        },
        {
            "name" : "Text.002",
            "primitives" : [
                {
                    "attributes" : {
                        "POSITION" : 12,
                        "NORMAL" : 13,
                        "TEXCOORD_0" : 14
                    },
                    "indices" : 15,
                    "material" : 2
                }
            ]
        },
        {
            "name" : "Text.003",
            "primitives" : [
                {
                    "attributes" : {
                        "POSITION" : 16,
                        "NORMAL" : 17,
                        "TEXCOORD_0" : 18
                    },
                    "indices" : 19,
                    "material" : 1
                }
            ]
        },
        {
            "name" : "Text.004",
            "primitives" : [
                {
                    "attributes" : {
                        "POSITION" : 20,
                        "NORMAL" : 21,
                        "TEXCOORD_0" : 22
                    },
                    "indices" : 23,
                    "material" : 1
                }
            ]
        }
    ],
    "accessors" : [
        {
            "bufferView" : 0,
            "componentType" : 5126,
            "count" : 3968,
            "max" : [
                0.9999990463256836,
                1,
                0.9999994039535522
            ],
            "min" : [
                -0.9999990463256836,
                -1,
                -0.9999994039535522
            ],
            "type" : "VEC3"
        },
        {
            "bufferView" : 1,
            "componentType" : 5126,
            "count" : 3968,
            "type" : "VEC3"
        },
        {
            "bufferView" : 2,
            "componentType" : 5126,
            "count" : 3968,
            "type" : "VEC2"
        },
        {
            "bufferView" : 3,
            "componentType" : 5123,
            "count" : 5760,
            "type" : "SCALAR"
        },
        {
            "bufferView" : 4,
            "componentType" : 5126,
            "count" : 721,
            "max" : [
                1.4559999704360962,
                0.3781672716140747,
                0.3500000238418579
            ],
            "min" : [
                0.7229999303817749,
                0,
                -0.3500000238418579
            ],
            "type" : "VEC3"
        },
        {
            "bufferView" : 5,
            "componentType" : 5126,
            "count" : 721,
            "type" : "VEC3"
        },
        {
            "bufferView" : 6,
            "componentType" : 5126,
            "count" : 721,
            "type" : "VEC2"
        },
        {
            "bufferView" : 7,
            "componentType" : 5123,
            "count" : 1152,
            "type" : "SCALAR"
        },
        {
            "bufferView" : 8,
            "componentType" : 5126,
            "count" : 84,
            "max" : [
                0.2889999747276306,
                0.18908363580703735,
                0.3410000205039978
            ],
            "min" : [
                -0.2890000343322754,
                -0.18908363580703735,
                -0.3410000205039978
            ],
            "type" : "VEC3"
        },
        {
            "bufferView" : 9,
            "componentType" : 5126,
            "count" : 84,
            "type" : "VEC3"
        },
        {
            "bufferView" : 10,
            "componentType" : 5126,
            "count" : 84,
            "type" : "VEC2"
        },
        {
            "bufferView" : 11,
            "componentType" : 5123,
            "count" : 132,
            "type" : "SCALAR"
        },
        {
            "bufferView" : 12,
            "componentType" : 5126,
            "count" : 82,
            "max" : [
                0.24394434690475464,
                0.18908363580703735,
                0.33987051248550415
            ],
            "min" : [
                -0.15205568075180054,
                -0.18908363580703735,
                -0.34212952852249146
            ],
            "type" : "VEC3"
        },
        {
            "bufferView" : 13,
            "componentType" : 5126,
            "count" : 82,
            "type" : "VEC3"
        },
        {
            "bufferView" : 14,
            "componentType" : 5126,
            "count" : 82,
            "type" : "VEC2"
        },
        {
            "bufferView" : 15,
            "componentType" : 5123,
            "count" : 132,
            "type" : "SCALAR"
        },
        {
            "bufferView" : 16,
            "componentType" : 5126,
            "count" : 39,
            "max" : [
                0.17799991369247437,
                0.3781672716140747,
                0.3410000205039978
            ],
            "min" : [
                -0.22800010442733765,
                0,
                -0.3410000205039978
            ],
            "type" : "VEC3"
        },
        {
            "bufferView" : 17,
            "componentType" : 5126,
            "count" : 39,
            "type" : "VEC3"
        },
        {
            "bufferView" : 18,
            "componentType" : 5126,
            "count" : 39,
            "type" : "VEC2"
        },
        {
            "bufferView" : 19,
            "componentType" : 5123,
            "count" : 60,
            "type" : "SCALAR"
        },
        {
            "bufferView" : 20,
            "componentType" : 5126,
            "count" : 42,
            "max" : [
                0.6679999232292175,
                0.3781672716140747,
                0.3410000205039978
            ],
            "min" : [
                0.2619999051094055,
                0,
                -0.3410000205039978
            ],
            "type" : "VEC3"
        },
        {
            "bufferView" : 21,
            "componentType" : 5126,
            "count" : 42,
            "type" : "VEC3"
        },
        {
            "bufferView" : 22,
            "componentType" : 5126,
            "count" : 42,
            "type" : "VEC2"
        },
        {
            "bufferView" : 23,
            "componentType" : 5123,
            "count" : 60,
            "type" : "SCALAR"
        },
        {
            "bufferView" : 24,
            "componentType" : 5126,
            "count" : 141,
            "max" : [
                5.833333333333333
            ],
            "min" : [
                0
            ],
            "type" : "SCALAR"
        },
        {
            "bufferView" : 25,
            "componentType" : 5126,
            "count" : 141,
            "type" : "VEC4"
        },
        {
            "bufferView" : 26,
            "componentType" : 5126,
            "count" : 141,
            "type" : "VEC3"
        },
        {
            "bufferView" : 27,
            "componentType" : 5126,
            "count" : 141,
            "type" : "VEC4"
        },
        {
            "bufferView" : 28,
            "componentType" : 5126,
            "count" : 141,
            "type" : "VEC3"
        },
        {
            "bufferView" : 29,
            "componentType" : 5126,
            "count" : 41,
            "max" : [
                1.6666666666666667
            ],
            "min" : [
                0
            ],
            "type" : "SCALAR"
        },
        {
            "bufferView" : 30,
            "componentType" : 5126,
            "count" : 41,
            "type" : "VEC4"
        },
        {
            "bufferView" : 31,
            "componentType" : 5126,
            "count" : 81,
            "max" : [
                3.3333333333333335
            ],
            "min" : [
                0
            ],
            "type" : "SCALAR"
        },
        {
            "bufferView" : 32,
            "componentType" : 5126,
            "count" : 81,
            "type" : "VEC4"
        },
        {
            "bufferView" : 33,
            "componentType" : 5126,
            "count" : 141,
            "type" : "VEC3"
        },
        {
            "bufferView" : 34,
            "componentType" : 5126,
            "count" : 141,
            "type" : "VEC4"
        },
        {
            "bufferView" : 35,
            "componentType" : 5126,
            "count" : 141,
            "type" : "VEC3"
        },
        {
            "bufferView" : 36,
            "componentType" : 5126,
            "count" : 141,
            "type" : "VEC3"
        },
        {
            "bufferView" : 37,
            "componentType" : 5126,
            "count" : 141,
            "type" : "VEC4"
        },
        {
            "bufferView" : 38,
            "componentType" : 5126,
            "count" : 141,
            "type" : "VEC3"
        }
    ],
    "bufferViews" : [
        {
            "buffer" : 0,
            "byteLength" : 47616,
            "byteOffset" : 0
        },
        {
            "buffer" : 0,
            "byteLength" : 47616,
            "byteOffset" : 47616
        },
        {
            "buffer" : 0,
            "byteLength" : 31744,
            "byteOffset" : 95232
        },
        {
            "buffer" : 0,
            "byteLength" : 11520,
            "byteOffset" : 126976
        },
        {
            "buffer" : 0,
            "byteLength" : 8652,
            "byteOffset" : 138496
        },
        {
            "buffer" : 0,
            "byteLength" : 8652,
            "byteOffset" : 147148
        },
        {
            "buffer" : 0,
            "byteLength" : 5768,
            "byteOffset" : 155800
        },
        {
            "buffer" : 0,
            "byteLength" : 2304,
            "byteOffset" : 161568
        },
        {
            "buffer" : 0,
            "byteLength" : 1008,
            "byteOffset" : 163872
        },
        {
            "buffer" : 0,
            "byteLength" : 1008,
            "byteOffset" : 164880
        },
        {
            "buffer" : 0,
            "byteLength" : 672,
            "byteOffset" : 165888
        },
        {
            "buffer" : 0,
            "byteLength" : 264,
            "byteOffset" : 166560
        },
        {
            "buffer" : 0,
            "byteLength" : 984,
            "byteOffset" : 166824
        },
        {
            "buffer" : 0,
            "byteLength" : 984,
            "byteOffset" : 167808
        },
        {
            "buffer" : 0,
            "byteLength" : 656,
            "byteOffset" : 168792
        },
        {
            "buffer" : 0,
            "byteLength" : 264,
            "byteOffset" : 169448
        },
        {
            "buffer" : 0,
            "byteLength" : 468,
            "byteOffset" : 169712
        },
        {
            "buffer" : 0,
            "byteLength" : 468,
            "byteOffset" : 170180
        },
        {
            "buffer" : 0,
            "byteLength" : 312,
            "byteOffset" : 170648
        },
        {
            "buffer" : 0,
            "byteLength" : 120,
            "byteOffset" : 170960
        },
        {
            "buffer" : 0,
            "byteLength" : 504,
            "byteOffset" : 171080
        },
        {
            "buffer" : 0,
            "byteLength" : 504,
            "byteOffset" : 171584
        },
        {
            "buffer" : 0,
            "byteLength" : 336,
            "byteOffset" : 172088
        },
        {
            "buffer" : 0,
            "byteLength" : 120,
            "byteOffset" : 172424
        },
        {
            "buffer" : 0,
            "byteLength" : 564,
            "byteOffset" : 172544
        },
        {
            "buffer" : 0,
            "byteLength" : 2256,
            "byteOffset" : 173108
        },
        {
            "buffer" : 0,
            "byteLength" : 1692,
            "byteOffset" : 175364
        },
        {
            "buffer" : 0,
            "byteLength" : 2256,
            "byteOffset" : 177056
        },
        {
            "buffer" : 0,
            "byteLength" : 1692,
            "byteOffset" : 179312
        },
        {
            "buffer" : 0,
            "byteLength" : 164,
            "byteOffset" : 181004
        },
        {
            "buffer" : 0,
            "byteLength" : 656,
            "byteOffset" : 181168
        },
        {
            "buffer" : 0,
            "byteLength" : 324,
            "byteOffset" : 181824
        },
        {
            "buffer" : 0,
            "byteLength" : 1296,
            "byteOffset" : 182148
        },
        {
            "buffer" : 0,
            "byteLength" : 1692,
            "byteOffset" : 183444
        },
        {
            "buffer" : 0,
            "byteLength" : 2256,
            "byteOffset" : 185136
        },
        {
            "buffer" : 0,
            "byteLength" : 1692,
            "byteOffset" : 187392
        },
        {
            "buffer" : 0,
            "byteLength" : 1692,
            "byteOffset" : 189084
        },
        {
            "buffer" : 0,
            "byteLength" : 2256,
            "byteOffset" : 190776
        },
        {
            "buffer" : 0,
            "byteLength" : 1692,
            "byteOffset" : 193032
        }
    ],
    "buffers" : [
        {
            "byteLength" : 194724,
            "uri" : "ball.bin"
        }
    ]
}
